<?xml version="1.0" encoding="UTF-8"?>
<!DOCTYPE svg PUBLIC "-//W3C//DTD SVG 1.1//EN" "http://www.w3.org/Graphics/SVG/1.1/DTD/svg11.dtd">
<!-- Creator: CorelDRAW X7 -->
<svg xmlns="http://www.w3.org/2000/svg" xml:space="preserve" width="297mm" height="210mm" version="1.1" style="shape-rendering:geometricPrecision; text-rendering:geometricPrecision; image-rendering:optimizeQuality; fill-rule:evenodd; clip-rule:evenodd"
viewBox="0 0 29700 21000"
 xmlns:xlink="http://www.w3.org/1999/xlink">
 <defs>
  <style type="text/css">
   <![CDATA[
    .str0 {stroke:#999999;stroke-width:7.62}
    .fil5 {fill:none}
    .fil4 {fill:none;fill-rule:nonzero}
    .fil1 {fill:#FEFEFE;fill-rule:nonzero}
    .fil3 {fill:#1A1A1A;fill-rule:nonzero}
    .fil2 {fill:#333333;fill-rule:nonzero}
    .fil0 {fill:#999999;fill-rule:nonzero}
   ]]>
  </style>
 </defs>
 <g id="Layer_x0020_1">
  <metadata id="CorelCorpID_0Corel-Layer"/>
  <g id="_1846622636736">
   <path class="fil0" d="M9091 6161l0 8204c0,910 -534,1757 -1370,2048 -292,101 -626,139 -999,61 -1200,-255 -4387,-1123 -5583,-1452 -273,-75 -462,-329 -462,-620l0 -8506c0,-250 229,-434 464,-373l5317 1379c456,118 939,41 1338,-214l212 -135c166,-106 124,-365 -65,-410l-5128 -1228c-213,-51 -321,-297 -218,-496l0 0c72,-139 227,-209 375,-171l5821 1519c175,46 298,208 298,394z"/>
   <polygon class="fil1" points="2154,9312 2898,9497 2905,8528 2160,8343 "/>
   <polygon class="fil1" points="1881,9244 1887,8275 1143,8090 1137,9059 "/>
   <polygon class="fil1" points="1879,9509 1135,9324 1128,10293 1873,10478 "/>
   <polygon class="fil1" points="2152,9576 2146,10545 2890,10730 2896,9761 "/>
   <polygon class="fil1" points="5707,10065 6451,10250 6458,9281 5713,9096 "/>
   <polygon class="fil1" points="5434,9997 5440,9028 4696,8843 4690,9812 "/>
   <polygon class="fil1" points="5432,10262 4688,10077 4681,11046 5426,11231 "/>
   <polygon class="fil1" points="5705,10329 5699,11298 6443,11483 6449,10514 "/>
   <polygon class="fil2" points="3216,15516 1589,16309 1600,15722 3239,13810 "/>
   <polygon class="fil2" points="3165,16762 1589,16309 1593,16124 3173,16546 "/>
   <polygon class="fil1" points="1593,16124 1832,16006 3454,16423 3173,16546 "/>
   <polygon class="fil3" points="3412,16437 1830,16005 1831,15820 3416,16220 "/>
   <polygon class="fil1" points="1831,15820 2069,15699 3696,16094 3416,16220 "/>
   <polygon class="fil3" points="3655,16093 2063,15704 2059,15519 3654,15876 "/>
   <polygon class="fil1" points="2059,15519 2294,15392 3930,15743 3654,15876 "/>
   <polygon class="fil3" points="3898,15738 2296,15394 2288,15209 3892,15521 "/>
   <polygon class="fil1" points="2288,15209 2519,15075 4164,15380 3892,15521 "/>
   <polygon class="fil3" points="4130,15398 2524,15075 2513,14891 4121,15181 "/>
   <polygon class="fil1" points="2513,14891 2742,14754 4391,15036 4121,15181 "/>
   <polygon class="fil3" points="4350,15073 2744,14751 2733,14566 4340,14857 "/>
   <polygon class="fil1" points="2733,14566 2962,14429 4611,14712 4340,14857 "/>
   <polygon class="fil1" points="4495,14801 2962,14430 2963,11638 4496,12010 "/>
   <polygon class="fil2" points="4791,15969 3165,16762 3176,16175 4815,14263 "/>
  </g>
  <polygon class="fil0" points="11812,10105 11812,9562 10390,9562 10390,7126 9790,7126 9790,10105 "/>
  <polygon id="1" class="fil0" points="12555,10105 12555,7126 11954,7126 11954,10105 "/>
  <path id="2" class="fil0" d="M13341 9598l0 -803 769 0c268,0 432,117 432,377 0,242 -164,426 -441,426l-760 0zm722 -1956c280,0 397,94 397,323 0,211 -125,323 -363,323l-756 0 0 -646 722 0zm-9 2463c721,0 1071,-345 1071,-888 0,-426 -194,-628 -436,-723 199,-85 350,-300 350,-556 0,-498 -302,-812 -864,-812l-1413 0 0 2979 1292 0z"/>
  <path id="3" class="fil0" d="M16599 7642c298,0 419,166 419,399 0,229 -121,395 -441,395l-752 0 0 -794 774 0zm903 2463l0 -843c0,-350 -96,-498 -350,-584 276,-103 427,-372 427,-691 0,-493 -350,-861 -881,-861l-1456 0 0 2979 583 0 0 -1166 640 0c345,0 449,112 449,399l0 767 588 0z"/>
  <path id="4" class="fil0" d="M19377 8979l-731 0 368 -1185 4 0 359 1185zm1006 1126l-1011 -2979 -695 0 -1024 2979 635 0 203 -614 1058 0 182 614 652 0z"/>
  <path id="5" class="fil0" d="M21874 7642c298,0 419,166 419,399 0,229 -121,395 -441,395l-752 0 0 -794 774 0zm903 2463l0 -843c0,-350 -95,-498 -350,-584 276,-103 427,-372 427,-691 0,-493 -350,-861 -881,-861l-1456 0 0 2979 583 0 0 -1166 640 0c345,0 449,112 449,399l0 767 588 0z"/>
  <polygon id="6" class="fil0" points="24289,10105 24289,8988 25248,7126 24557,7126 23999,8337 23394,7126 22695,7126 23688,8979 23688,10105 "/>
  <polygon id="7" class="fil4 str0" points="11812,10105 11812,9562 10390,9562 10390,7126 9790,7126 9790,10105 "/>
  <polygon id="8" class="fil4 str0" points="12555,10105 12555,7126 11954,7126 11954,10105 "/>
  <path id="9" class="fil4 str0" d="M13341 9598l0 -803 769 0c268,0 432,117 432,377 0,242 -164,426 -441,426l-760 0zm722 -1956c280,0 397,94 397,323 0,211 -125,323 -363,323l-756 0 0 -646 722 0zm-9 2463c721,0 1071,-345 1071,-888 0,-426 -194,-628 -436,-723 199,-85 350,-300 350,-556 0,-498 -302,-812 -864,-812l-1413 0 0 2979 1292 0z"/>
  <path id="10" class="fil4 str0" d="M16599 7642c298,0 419,166 419,399 0,229 -121,395 -441,395l-752 0 0 -794 774 0zm903 2463l0 -843c0,-350 -96,-498 -350,-584 276,-103 427,-372 427,-691 0,-493 -350,-861 -881,-861l-1456 0 0 2979 583 0 0 -1166 640 0c345,0 449,112 449,399l0 767 588 0z"/>
  <path id="11" class="fil4 str0" d="M19377 8979l-731 0 368 -1185 4 0 359 1185zm1006 1126l-1011 -2979 -695 0 -1024 2979 635 0 203 -614 1058 0 182 614 652 0z"/>
  <path id="12" class="fil4 str0" d="M21874 7642c298,0 419,166 419,399 0,229 -121,395 -441,395l-752 0 0 -794 774 0zm903 2463l0 -843c0,-350 -95,-498 -350,-584 276,-103 427,-372 427,-691 0,-493 -350,-861 -881,-861l-1456 0 0 2979 583 0 0 -1166 640 0c345,0 449,112 449,399l0 767 588 0z"/>
  <polygon id="13" class="fil4 str0" points="24289,10105 24289,8988 25248,7126 24557,7126 23999,8337 23394,7126 22695,7126 23688,8979 23688,10105 "/>
  <path class="fil0" d="M11588 13948l-802 0 403 -1403 5 0 394 1403zm1105 1335l-1110 -3530 -764 0 -1124 3530 697 0 223 -729 1163 0 199 729 716 0z"/>
  <path id="1" class="fil0" d="M13500 13401l0 -1037 626 0c380,0 536,218 536,511 0,308 -156,526 -536,526l-626 0zm0 1882l0 -1281 730 0c617,0 1011,-463 1011,-1106 0,-638 -394,-1143 -1011,-1143l-1390 0 0 3530 660 0z"/>
  <path id="2" class="fil0" d="M16033 13401l0 -1037 627 0c379,0 536,218 536,511 0,308 -157,526 -536,526l-627 0zm0 1882l0 -1281 731 0c617,0 1010,-463 1010,-1106 0,-638 -393,-1143 -1010,-1143l-1390 0 0 3530 659 0z"/>
  <path id="3" class="fil4 str0" d="M11588 13948l-802 0 403 -1403 5 0 394 1403zm1105 1335l-1110 -3530 -764 0 -1124 3530 697 0 223 -729 1163 0 199 729 716 0z"/>
  <path id="4" class="fil4 str0" d="M13500 13401l0 -1037 626 0c380,0 536,218 536,511 0,308 -156,526 -536,526l-626 0zm0 1882l0 -1281 730 0c617,0 1011,-463 1011,-1106 0,-638 -394,-1143 -1011,-1143l-1390 0 0 3530 660 0z"/>
  <path id="5" class="fil4 str0" d="M16033 13401l0 -1037 627 0c379,0 536,218 536,511 0,308 -157,526 -536,526l-627 0zm0 1882l0 -1281 731 0c617,0 1010,-463 1010,-1106 0,-638 -393,-1143 -1010,-1143l-1390 0 0 3530 659 0z"/>
  <rect class="fil5" width="29700" height="21000"/>
 </g>
</svg>
