<?xml version="1.0" encoding="UTF-8"?>
<!DOCTYPE svg PUBLIC "-//W3C//DTD SVG 1.1//EN" "http://www.w3.org/Graphics/SVG/1.1/DTD/svg11.dtd">
<!-- Creator: CorelDRAW X7 -->
<svg xmlns="http://www.w3.org/2000/svg" xml:space="preserve" width="297mm" height="210mm" version="1.1" style="shape-rendering:geometricPrecision; text-rendering:geometricPrecision; image-rendering:optimizeQuality; fill-rule:evenodd; clip-rule:evenodd"
viewBox="0 0 29700 21000"
 xmlns:xlink="http://www.w3.org/1999/xlink">
 <defs>
  <style type="text/css">
   <![CDATA[
    .fil2 {fill:black}
    .fil3 {fill:white}
    .fil4 {fill:white}
    .fil1 {fill:#FEFEFE;fill-rule:nonzero}
    .fil0 {fill:#77442F;fill-rule:nonzero}
   ]]>
  </style>
 </defs>
 <g id="Layer_x0020_1">
  <metadata id="CorelCorpID_0Corel-Layer"/>
  <g id="_1881141208048">
   <g>
    <path class="fil0" d="M6128 7743l5244 7703 11107 2454c0,0 1295,229 1533,-1723 237,-1952 -781,-2468 -781,-2468l-11652 -2574 -6149 -8970c-78,-113 -111,-281 -89,-448l0 0c35,-270 203,-457 377,-418l11446 2529 7174 9051c0,0 1033,1158 731,3647 -303,2490 -1856,3309 -2510,3164 -653,-144 -11672,-2550 -11672,-2550l-6241 -9252c-57,-85 -81,-210 -65,-334l0 0c26,-203 152,-343 283,-314l836 184c162,36 311,147 428,319z"/>
    <polygon class="fil1" points="22501,12499 16659,4854 7526,2836 8055,3439 16536,5313 21894,12365 "/>
    <path class="fil1" d="M17019 8257c47,10 93,-41 102,-114l249 -2051c53,-431 320,-732 597,-671 277,61 459,462 407,893l-5 35c-9,73 22,141 70,152 47,10 92,-41 101,-115l4 -34c71,-578 -174,-1115 -545,-1197 -370,-82 -729,321 -800,899l-249 2051c-9,74 22,141 69,152z"/>
    <path class="fil1" d="M16360 7279c47,10 92,-41 101,-115l250 -2050c52,-431 320,-733 596,-672 287,64 458,412 408,829 -9,73 22,141 69,152 47,10 93,-41 102,-115 68,-561 -167,-1048 -546,-1132 -371,-82 -730,322 -800,900l-249 2051c-9,73 22,141 69,152z"/>
    <path class="fil1" d="M17162 6956c28,6 58,-9 79,-44 33,-56 32,-141 -2,-190l-639 -902c-34,-49 -89,-44 -122,12 -34,56 -33,141 2,190l638 902c13,18 28,29 44,32z"/>
    <path class="fil1" d="M17086 7582c28,6 58,-9 79,-45 33,-56 32,-140 -2,-189l-639 -903c-34,-49 -89,-43 -123,13 -33,56 -32,141 3,189l638 903c13,18 28,28 44,32z"/>
    <path class="fil2" d="M11907 10162l-4846 -6943 8457 1869 994 219 -221 1820c-9,73 22,141 69,152 47,10 92,-41 101,-115l46 -372 514 729 -71 584c-9,74 22,141 69,152 47,10 93,-41 102,-114l216 -1777 4557 5999 -9987 -2203z"/>
    <path class="fil3" d="M6627 2637l899 199 9061 2002c-21,75 -37,155 -47,238l-28 231 -994 -219 -7463 -1649 -994 -220 -434 -582z"/>
    <path class="fil4" d="M21894 12365l-4557 -5999 33 -274c10,-84 29,-164 54,-237l5077 6644 -607 -134z"/>
    <path class="fil4" d="M17292 5682c-44,112 -76,238 -93,372l-13 114 -520 -685 45 -369c6,-54 16,-105 29,-155l552 723z"/>
   </g>
   <path class="fil4" d="M6190 3273l-490 4151c162,36 311,147 428,319l5244 7703 11107 2454c0,0 1295,229 1533,-1723 237,-1952 -781,-2468 -781,-2468l-11652 -2574 -5389 -7862z"/>
  </g>
 </g>
</svg>
